<?xml version="1.0" encoding="utf-8"?>
<!-- Generator: Adobe Illustrator 27.4.1, SVG Export Plug-In . SVG Version: 6.00 Build 0)  -->
<svg version="1.1" xmlns="http://www.w3.org/2000/svg" xmlns:xlink="http://www.w3.org/1999/xlink" x="0px" y="0px"
	 viewBox="0 0 24 24" style="enable-background:new 0 0 24 24;" xml:space="preserve">
<style type="text/css">
	.st0{display:none;}
	.st1{display:inline;opacity:0.75;fill:#E5D5AC;stroke:#2D2307;stroke-width:0.25;stroke-miterlimit:10;}
	.st2{opacity:0.6;fill:#006482;stroke:#FFFFFF;stroke-width:0.25;stroke-miterlimit:10;}
	.st3{fill:#FCFCFC;}
</style>
<g id="Layer_2" class="st0">
	<path class="st1" d="M9.7,3.8C9.4,3.9,9.3,4.1,9.4,4.3l0.2,0.8l0.1,0.4l0.7,3L8.3,9.1l0.8-1.7c0.1-0.2,0-0.5-0.2-0.6
		c-0.1,0-0.2-0.1-0.3,0C8.5,6.8,8.4,6.9,8.3,7L7.2,9.6c-0.1,0.2,0,0.5,0.2,0.6c0.1,0,0.2,0.1,0.3,0L11,9.3l4.2-1.1
		c0.2-0.1,0.4-0.3,0.3-0.5c0,0,0-0.1,0-0.1c-0.6-1.2-2-1.9-3.2-2.4c-1-0.4-1.7-0.5-2-0.6l0-0.2l1.3-0.3C11.8,4.2,12,4,11.9,3.7
		s-0.3-0.4-0.5-0.3c0,0,0,0,0,0L9.7,3.8z M10.6,5.7c0.4,0.1,0.7,0.1,1.5,0.4C13,6.5,13.8,7,14.4,7.6l-3.1,0.8L10.6,5.7z M7,11.2
		c-0.2,0.1-0.4,0.3-0.3,0.5c0,0.1,0.1,0.2,0.1,0.2l0,0c0,0,0,0,0,0l2,1.9c2.5-0.6,4.9-1.2,7.4-1.7l1.4-2.8l0,0
		c0.1-0.1,0.1-0.2,0-0.3c-0.1-0.2-0.3-0.4-0.5-0.3L7,11.2z"/>
</g>
<g id="Layer_1">
	<path class="st2" d="M8.3,5.4c1.2,1.5,1.9,0,1.9,0c1.1,1.5,2,0,2,0c1.2,1.5,2,0,2,0c1.2,1.4,1.9,0,1.9,0c1.2,1.3,2,0,2,0
		c0,2.1,0,8,0,10.2c0,0.4-0.3,0.8-0.8,0.8c-5.1,0-3.4,5-5.1,6.7c-1.7-1.7,0-6.7-5.1-6.7c-0.4,0-0.8-0.4-0.8-0.8c0-2.1,0-7.9,0-10.1
		C7.7,7.1,8.3,5.4,8.3,5.4z"/>
</g>
<g id="Layer_3">
	<g>
		<path class="st3" d="M14.4,12.1v-1.4c0-1.2-1-2.2-2.2-2.2s-2.2,1-2.2,2.2v1.4c0,0.1,0,0.1,0.1,0.2l0.5,0.3v0.7
			c0,0.4,0.3,0.7,0.6,0.8v-0.6c0-0.1,0.1-0.2,0.2-0.2c0.1,0,0.2,0.1,0.2,0.2v0.6H12v-0.6c0-0.1,0.1-0.2,0.2-0.2s0.2,0.1,0.2,0.2v0.6
			h0.4v-0.6c0-0.1,0.1-0.2,0.2-0.2s0.2,0.1,0.2,0.2V14c0.3-0.1,0.6-0.4,0.6-0.8v-0.7l0.5-0.3C14.4,12.2,14.4,12.1,14.4,12.1z
			 M11.4,10.9c-0.2,0-0.4-0.2-0.4-0.4c0-0.2,0.2-0.4,0.4-0.4c0.2,0,0.4,0.2,0.4,0.4C11.8,10.7,11.6,10.9,11.4,10.9z M12.6,12
			c0,0.1-0.1,0.1-0.2,0.1H12c-0.1,0-0.1,0-0.2-0.1c0-0.1,0-0.1,0-0.2l0.2-0.4c0.1-0.1,0.3-0.1,0.4,0l0.2,0.4
			C12.6,11.8,12.6,11.9,12.6,12z M13,10.9c-0.2,0-0.4-0.2-0.4-0.4c0-0.2,0.2-0.4,0.4-0.4c0.2,0,0.4,0.2,0.4,0.4
			C13.4,10.7,13.2,10.9,13,10.9z"/>
		<path class="st3" d="M15.4,13.5l-0.9-0.9l-0.2,0.1v0.5c0,0.2-0.1,0.5-0.2,0.7l0.5,0.5c-0.1,0.2-0.1,0.5,0.1,0.7
			c0.2,0.2,0.6,0.2,0.8,0c0.1-0.1,0.2-0.3,0.2-0.4c0.1,0,0.3-0.1,0.4-0.2c0.2-0.2,0.2-0.6,0-0.8C15.9,13.5,15.6,13.4,15.4,13.5z"/>
		<path class="st3" d="M9.1,9l0.7,0.7c0.2-0.4,0.4-0.7,0.7-1L9.9,8.1C10,7.9,10,7.6,9.8,7.4C9.6,7.2,9.2,7.2,9,7.4
			C8.8,7.5,8.8,7.7,8.8,7.8C8.6,7.8,8.5,7.9,8.4,8c-0.2,0.2-0.2,0.6,0,0.8C8.6,9,8.8,9.1,9.1,9z"/>
		<path class="st3" d="M10.2,13.3v-0.5L10,12.6l-0.9,0.9c-0.2-0.1-0.5-0.1-0.7,0.1c-0.2,0.2-0.2,0.6,0,0.8c0.1,0.1,0.3,0.2,0.4,0.2
			c0,0.1,0.1,0.3,0.2,0.4c0.2,0.2,0.6,0.2,0.8,0c0.2-0.2,0.2-0.5,0.1-0.7l0.5-0.5C10.3,13.7,10.2,13.5,10.2,13.3z"/>
		<path class="st3" d="M14.6,9.7L15.4,9C15.6,9.1,15.9,9,16,8.8c0.2-0.2,0.2-0.6,0-0.8c-0.1-0.1-0.3-0.2-0.4-0.2
			c0-0.1-0.1-0.3-0.2-0.4c-0.2-0.2-0.6-0.2-0.8,0c-0.2,0.2-0.2,0.5-0.1,0.7l-0.6,0.6C14.2,9,14.5,9.3,14.6,9.7z"/>
	</g>
</g>
</svg>
